<?xml version="1.0" standalone="no"?>
<!DOCTYPE svg PUBLIC "-//W3C//DTD SVG 20010904//EN"
 "http://www.w3.org/TR/2001/REC-SVG-20010904/DTD/svg10.dtd">
<svg version="1.0" xmlns="http://www.w3.org/2000/svg"
 width="518.000000pt" height="567.000000pt" viewBox="0 0 518.000000 567.000000"
 preserveAspectRatio="xMidYMid meet">
<metadata>
Created by potrace 1.16, written by Peter Selinger 2001-2019
</metadata>
<g transform="translate(0.000000,567.000000) scale(0.100000,-0.100000)"
fill="#d4a843" stroke="none">
<path d="M2545 5659 c-33 -5 -87 -18 -121 -29 -108 -36 -595 -335 -1739 -1068
-214 -137 -334 -222 -394 -277 -76 -69 -163 -186 -207 -280 -77 -163 -77 -159
-75 -693 1 -260 5 -481 8 -490 14 -40 56 -72 94 -72 71 0 516 166 1009 378
173 74 325 135 337 136 11 0 19 4 18 7 -7 10 203 101 216 93 8 -4 10 -3 5 4
-8 14 40 36 56 26 7 -5 8 -2 3 6 -6 10 -4 12 9 7 11 -5 15 -3 10 5 -5 8 -2 9
10 5 9 -4 15 -3 12 2 -7 11 22 23 36 14 6 -3 8 -1 5 4 -8 13 20 26 35 16 6 -3
8 -2 5 4 -7 11 100 66 113 58 5 -3 22 1 37 10 26 15 18 15 -24 -2 -42 -15 0 9
115 66 68 34 121 57 117 51 -3 -6 14 0 39 12 25 12 44 24 42 26 -3 2 -15 -2
-28 -8 -12 -7 -18 -8 -13 -3 14 14 185 105 185 99 0 -3 -18 -15 -40 -26 -22
-11 -40 -23 -40 -25 0 -3 19 4 43 16 72 36 327 181 327 185 0 2 -18 -5 -40
-16 -22 -11 -40 -18 -40 -15 0 8 62 37 84 39 43 5 659 391 682 427 3 5 -64
-38 -148 -94 -194 -129 -498 -315 -498 -304 0 3 55 37 123 77 67 40 214 134
327 209 224 148 226 150 215 130 -5 -8 -4 -11 1 -6 5 5 9 14 9 19 0 6 6 13 14
16 9 3 11 0 5 -9 -7 -12 -5 -12 9 0 20 16 22 25 5 16 -7 -4 1 5 17 19 34 30
54 34 34 9 -11 -15 -10 -14 9 1 24 21 29 32 10 20 -9 -5 -9 -2 1 9 16 20 36
23 25 5 -4 -8 -3 -10 2 -5 5 5 9 14 9 19 0 6 6 13 14 16 9 3 11 0 5 -9 -7 -12
-5 -12 9 0 20 16 23 26 5 15 -9 -5 -9 -2 1 9 16 20 36 23 25 5 -5 -9 -2 -9 9
1 20 16 23 26 5 15 -9 -5 -9 -2 1 9 15 19 36 23 25 5 -4 -7 -3 -8 5 -4 6 4 9
11 6 16 -3 4 12 22 34 39 41 33 57 39 45 19 -5 -9 -2 -9 9 1 20 16 23 26 5 15
-9 -5 -8 -2 1 10 11 13 16 14 22 4 7 -10 9 -8 9 5 0 11 4 15 12 11 6 -4 8 -3
5 3 -8 13 14 33 40 38 10 1 17 7 16 13 -1 5 8 18 20 28 21 19 21 19 7 -1 -14
-18 -14 -19 2 -7 9 8 15 19 12 26 -3 7 2 19 11 26 21 17 19 68 -4 105 -18 31
-65 62 -788 522 -292 186 -374 227 -475 238 -29 3 -62 8 -73 9 -11 2 -47 -1
-80 -5z m95 -1794 c0 -2 -10 -9 -22 -15 -22 -11 -22 -10 -4 4 21 17 26 19 26
11z m-50 -30 c0 -2 -18 -14 -40 -25 -22 -11 -40 -18 -40 -15 0 2 17 13 38 24
42 23 42 23 42 16z"/>
<path d="M4412 4550 c-12 -6 -60 -40 -105 -78 -124 -104 -350 -273 -562 -422
-226 -159 -228 -161 -254 -216 -21 -44 -21 -50 -21 -1854 0 -1613 2 -1814 16
-1848 25 -64 88 -80 153 -40 82 50 792 517 1035 680 155 105 244 180 311 263
84 105 165 288 185 415 8 54 10 399 8 1230 l-3 1155 -33 95 c-73 209 -196 361
-387 477 -265 160 -282 167 -343 143z"/>
<path d="M2344 3694 c-18 -14 -18 -15 4 -4 12 6 22 13 22 15 0 8 -5 6 -26 -11z"/>
<path d="M2130 3585 c-36 -19 -61 -34 -57 -35 10 0 127 59 127 65 0 7 2 8 -70
-30z"/>
<path d="M2871 3514 c-18 -10 -45 -35 -60 -58 l-26 -40 0 -695 c0 -383 1
-1152 3 -1708 l2 -1013 135 0 135 0 0 1708 c0 1643 -1 1709 -19 1742 -36 68
-107 95 -170 64z"/>
<path d="M2216 3169 c-37 -10 -85 -55 -102 -96 -12 -27 -14 -284 -14 -1553 l0
-1520 138 0 137 0 4 1528 c3 1350 1 1532 -12 1558 -33 64 -95 98 -151 83z"/>
<path d="M1530 2850 c-14 -4 -99 -40 -190 -80 -91 -39 -214 -92 -275 -117
-356 -145 -603 -244 -774 -309 -219 -84 -254 -102 -271 -143 -8 -21 -10 -135
-8 -427 4 -384 5 -402 27 -469 52 -160 162 -320 282 -412 51 -39 660 -444
1038 -690 142 -92 181 -113 211 -113 40 0 71 25 89 73 7 19 11 442 11 1323 1
1440 6 1330 -65 1360 -38 16 -39 16 -75 4z"/>
</g>
</svg>
