<?xml version="1.0" standalone="no"?>
<!DOCTYPE svg PUBLIC "-//W3C//DTD SVG 20010904//EN"
 "http://www.w3.org/TR/2001/REC-SVG-20010904/DTD/svg10.dtd">
<svg version="1.0" xmlns="http://www.w3.org/2000/svg"
 width="1048.000000pt" height="746.000000pt" viewBox="0 0 1048.000000 746.000000"
 preserveAspectRatio="xMidYMid meet">
<metadata>
Created by potrace 1.16, written by Peter Selinger 2001-2019
</metadata>
<g transform="translate(0.000000,746.000000) scale(0.100000,-0.100000)"
fill="#ffffff" stroke="none">
<path d="M5045 7449 c-33 -5 -87 -18 -121 -29 -108 -36 -595 -335 -1739 -1068
-214 -137 -334 -222 -394 -277 -76 -69 -163 -186 -207 -280 -77 -163 -77 -159
-75 -693 1 -260 5 -481 8 -490 14 -40 56 -72 94 -72 71 0 516 166 1009 378
173 74 325 135 337 136 11 0 19 4 18 7 -7 10 203 101 216 93 8 -4 10 -3 5 4
-8 14 40 36 56 26 7 -5 8 -2 3 6 -6 10 -4 12 9 7 11 -5 15 -3 10 5 -5 8 -2 9
10 5 9 -4 15 -3 12 2 -7 11 22 23 36 14 6 -3 8 -1 5 4 -8 13 20 26 35 16 6 -3
8 -2 5 4 -7 11 100 66 113 58 5 -3 22 1 37 10 26 15 18 15 -24 -2 -42 -15 0 9
115 66 68 34 121 57 117 51 -3 -6 14 0 39 12 25 12 44 24 42 26 -3 2 -15 -2
-28 -8 -12 -7 -18 -8 -13 -3 14 14 185 105 185 99 0 -3 -18 -15 -40 -26 -22
-11 -40 -23 -40 -25 0 -3 19 4 43 16 72 36 327 181 327 185 0 2 -18 -5 -40
-16 -22 -11 -40 -18 -40 -15 0 8 62 37 84 39 43 5 659 391 682 427 3 5 -64
-38 -148 -94 -194 -129 -498 -315 -498 -304 0 3 55 37 123 77 67 40 214 134
327 209 224 148 226 150 215 130 -5 -8 -4 -11 1 -6 5 5 9 14 9 19 0 6 6 13 14
16 9 3 11 0 5 -9 -7 -12 -5 -12 9 0 20 16 22 25 5 16 -7 -4 1 5 17 19 34 30
54 34 34 9 -11 -15 -10 -14 9 1 24 21 29 32 10 20 -9 -5 -9 -2 1 9 16 20 36
23 25 5 -4 -8 -3 -10 2 -5 5 5 9 14 9 19 0 6 6 13 14 16 9 3 11 0 5 -9 -7 -12
-5 -12 9 0 20 16 23 26 5 15 -9 -5 -9 -2 1 9 16 20 36 23 25 5 -5 -9 -2 -9 9
1 20 16 23 26 5 15 -9 -5 -9 -2 1 9 15 19 36 23 25 5 -4 -7 -3 -8 5 -4 6 4 9
11 6 16 -3 4 12 22 34 39 41 33 57 39 45 19 -5 -9 -2 -9 9 1 20 16 23 26 5 15
-9 -5 -8 -2 1 10 11 13 16 14 22 4 7 -10 9 -8 9 5 0 11 4 15 12 11 6 -4 8 -3
5 3 -8 13 14 33 40 38 10 1 17 7 16 13 -1 5 8 18 20 28 21 19 21 19 7 -1 -14
-18 -14 -19 2 -7 9 8 15 19 12 26 -3 7 2 19 11 26 21 17 19 68 -4 105 -18 31
-65 62 -788 522 -292 186 -374 227 -475 238 -29 3 -62 8 -73 9 -11 2 -47 -1
-80 -5z m95 -1794 c0 -2 -10 -9 -22 -15 -22 -11 -22 -10 -4 4 21 17 26 19 26
11z m-50 -30 c0 -2 -18 -14 -40 -25 -22 -11 -40 -18 -40 -15 0 2 17 13 38 24
42 23 42 23 42 16z"/>
<path d="M6912 6340 c-12 -6 -60 -40 -105 -78 -124 -104 -350 -273 -562 -422
-226 -159 -228 -161 -254 -216 -21 -44 -21 -50 -21 -1854 0 -1613 2 -1814 16
-1848 25 -64 88 -80 153 -40 82 50 792 517 1035 680 155 105 244 180 311 263
84 105 165 288 185 415 8 54 10 399 8 1230 l-3 1155 -33 95 c-73 209 -196 361
-387 477 -265 160 -282 167 -343 143z"/>
<path d="M4844 5484 c-18 -14 -18 -15 4 -4 12 6 22 13 22 15 0 8 -5 6 -26 -11z"/>
<path d="M4630 5375 c-36 -19 -61 -34 -57 -35 10 0 127 59 127 65 0 7 2 8 -70
-30z"/>
<path d="M5371 5304 c-18 -10 -45 -36 -60 -58 l-26 -40 3 -1810 c2 -1108 7
-1823 13 -1842 14 -46 51 -76 101 -81 54 -6 102 24 132 82 l21 40 3 1805 c2
1744 2 1806 -16 1840 -37 68 -108 95 -171 64z"/>
<path d="M4714 4958 c-41 -10 -101 -77 -109 -120 -3 -18 -4 -761 -3 -1650 l3
-1617 21 -28 c71 -96 171 -95 225 1 l23 41 4 1631 c4 1776 7 1658 -50 1712
-32 29 -75 41 -114 30z"/>
<path d="M4030 4640 c-14 -4 -99 -40 -190 -80 -91 -39 -214 -92 -275 -117
-356 -145 -603 -244 -774 -309 -219 -84 -254 -102 -271 -143 -8 -21 -10 -135
-8 -427 4 -384 5 -402 27 -469 52 -160 162 -320 282 -412 51 -39 660 -444
1038 -690 142 -92 181 -113 211 -113 40 0 71 25 89 73 7 19 11 442 11 1323 1
1440 6 1330 -65 1360 -38 16 -39 16 -75 4z"/>
<path d="M3587 830 c-73 -13 -171 -63 -222 -115 -26 -25 -61 -76 -78 -113 -30
-63 -32 -74 -32 -182 0 -108 2 -119 31 -180 78 -164 253 -253 436 -222 138 24
241 103 301 230 25 54 32 83 35 153 5 106 -12 174 -67 255 -88 131 -249 200
-404 174z m178 -139 c64 -29 106 -71 136 -136 24 -50 29 -73 29 -135 -1 -119
-51 -209 -143 -257 -44 -23 -64 -27 -132 -27 -53 1 -93 7 -118 18 -226 101
-213 458 20 542 56 19 160 17 208 -5z"/>
<path d="M5461 829 c-145 -25 -234 -132 -216 -260 13 -92 69 -145 189 -180
234 -67 256 -80 256 -144 0 -51 -15 -74 -63 -96 -82 -37 -224 -20 -309 36 -22
15 -41 25 -42 23 -1 -2 -15 -23 -30 -47 l-29 -45 29 -23 c16 -12 63 -35 104
-50 94 -35 215 -38 299 -9 144 50 205 188 140 317 -27 55 -93 92 -226 129
-173 48 -193 61 -193 133 0 103 172 137 318 63 l50 -25 26 52 c31 63 28 68
-70 101 -84 29 -161 37 -233 25z"/>
<path d="M2633 816 c-110 -36 -203 -123 -250 -236 -22 -54 -27 -80 -27 -155 0
-110 19 -172 78 -253 78 -106 180 -154 326 -156 90 -1 99 1 170 36 41 20 88
49 104 63 l29 27 -40 40 -41 41 -38 -31 c-78 -61 -206 -77 -302 -36 -122 50
-188 208 -148 348 41 140 129 206 275 206 73 0 125 -19 180 -65 l33 -29 39 43
c21 23 39 44 39 47 0 14 -62 59 -120 87 -58 29 -75 32 -165 34 -63 2 -116 -2
-142 -11z"/>
<path d="M6113 822 l-63 -3 0 -247 c0 -272 9 -339 53 -415 118 -200 473 -189
571 18 36 75 45 162 46 423 l0 222 -65 0 -65 0 0 -257 c0 -158 -4 -274 -11
-298 -15 -53 -73 -110 -129 -125 -87 -24 -184 6 -232 71 -33 43 -38 95 -37
358 0 139 -1 254 -3 255 -2 0 -31 0 -65 -2z"/>
<path d="M10053 816 c-192 -62 -310 -263 -275 -468 46 -265 309 -402 573 -298
27 11 64 30 83 42 l35 23 3 163 3 162 -92 0 c-50 0 -98 3 -107 6 -13 5 -16 -2
-16 -40 l0 -46 45 0 45 0 0 -94 0 -94 -42 -17 c-110 -45 -246 -25 -323 46 -63
58 -88 129 -83 234 10 177 111 274 284 275 68 0 89 -4 130 -26 27 -14 56 -32
65 -40 14 -12 20 -9 54 27 l38 42 -34 28 c-19 16 -59 41 -89 56 -47 23 -70 27
-155 30 -65 2 -115 -2 -142 -11z"/>
<path d="M2 764 l3 -56 128 1 127 2 0 -343 0 -343 65 3 65 4 0 339 0 339 124
0 124 0 4 55 3 55 -323 0 -323 0 3 -56z"/>
<path d="M870 423 l0 -398 253 -2 c138 -1 267 1 285 4 31 5 32 6 32 59 l0 54
-219 0 -220 0 -3 115 -3 115 192 0 191 0 4 53 c3 28 2 56 0 61 -3 5 -84 6
-194 2 l-188 -6 0 115 0 115 215 0 215 0 0 55 0 55 -280 0 -280 0 0 -397z"/>
<path d="M1692 424 l3 -396 262 -2 263 -1 -1 58 -2 57 -199 0 -199 0 3 340 3
340 -68 0 -67 0 2 -396z"/>
<path d="M4310 423 l0 -398 60 0 60 0 0 272 c0 149 4 274 9 277 9 6 83 -87
301 -376 l125 -166 58 -4 57 -3 0 398 0 397 -64 0 -65 0 6 -274 c3 -166 1
-276 -4 -279 -8 -5 -369 458 -414 531 -12 19 -22 22 -71 22 l-58 0 0 -397z"/>
<path d="M7008 423 l2 -398 260 3 260 3 0 54 0 55 -201 0 -200 0 3 340 4 340
-65 0 -66 0 3 -397z"/>
<path d="M7586 763 l0 -57 127 3 127 3 0 -344 0 -343 60 3 60 4 0 339 0 339
130 0 130 0 0 55 0 55 -317 0 -318 0 1 -57z"/>
<path d="M8438 423 l2 -398 60 3 60 4 0 76 c0 43 3 220 7 395 l6 317 -69 0
-69 0 3 -397z"/>
<path d="M8860 419 c0 -362 2 -401 16 -395 9 3 37 6 62 6 l47 0 -3 275 c-2
218 0 275 10 275 7 -1 76 -84 153 -186 77 -102 171 -226 209 -275 l69 -89 53
0 54 0 0 395 0 395 -62 0 -63 0 3 -272 c1 -149 -1 -275 -6 -280 -5 -5 -102
117 -218 271 l-209 280 -57 1 -58 0 0 -401z"/>
</g>
</svg>
